<svg xmlns:svg="http://www.w3.org/2000/svg" xmlns="http://www.w3.org/2000/svg" xmlns:inkscape="http://www.inkscape.org/namespaces/inkscape" version="1.0" width="800" height="400" id="svg2">
  <defs id="defs4">
  </defs>
  <g id="layer1">
    <rect width="708.89233" height="305.06516" x="42.779964" y="45.163509" id="rect3897" style="opacity:1;fill:#e2001a;fill-opacity:1;fill-rule:nonzero;stroke:none;stroke-width:18;stroke-linecap:butt;stroke-linejoin:miter;stroke-miterlimit:4;stroke-dasharray:none;stroke-dashoffset:0;stroke-opacity:1"/>
    <path d="M 405.25389,85.873988 C 341.00537,85.873988 288.86165,138.01771 288.86165,202.26623 C 288.86165,266.51474 341.00537,318.65847 405.25389,318.65847 C 469.5024,318.65847 521.64613,266.51474 521.64613,202.26623 C 521.64613,138.01771 469.5024,85.873988 405.25389,85.873988 z M 108.0657,90.529677 L 108.0657,313.22684 L 198.85165,313.22684 C 317.75914,313.22684 274.84358,191.40295 240.75286,191.40295 C 271.58141,191.40295 284.89851,90.529677 205.05924,90.529677 L 108.0657,90.529677 z M 521.25815,90.529677 L 578.58134,199.93838 L 519.31829,313.22684 L 582.26709,313.22684 L 610.00725,260.17137 L 637.74739,313.22684 L 700.79319,313.22684 L 641.53014,199.93838 L 698.75633,90.529677 L 635.80752,90.529677 L 610.00725,139.80239 L 584.20696,90.529677 L 521.25815,90.529677 z M 405.25389,139.41442 C 435.66486,139.41442 460.34622,167.57203 460.34622,202.26623 C 460.34622,236.96043 435.66486,265.11803 405.25389,265.11803 C 374.84293,265.11803 350.16157,236.96043 350.16157,202.26623 C 350.16157,167.57203 374.84293,139.41442 405.25389,139.41442 z M 167.81372,139.80239 L 190.70419,139.80239 C 214.26704,139.80239 213.9382,181.7036 190.70419,181.7036 L 167.81372,181.7036 L 167.81372,139.80239 z M 167.81372,217.00925 L 196.5238,217.00925 C 220.08665,217.00925 219.7578,258.91045 196.5238,258.91045 L 167.81372,258.91045 L 167.81372,217.00925 z" id="path3872" style="opacity:1;fill:#ffffff;fill-opacity:1;fill-rule:nonzero;stroke:none;stroke-width:1;stroke-linecap:butt;stroke-linejoin:miter;stroke-miterlimit:4;stroke-dasharray:none;stroke-dashoffset:0;stroke-opacity:1"/>
  </g>
</svg>